<?xml version="1.0" encoding="UTF-8"?>
<svg version="1.1" xmlns="http://www.w3.org/2000/svg" width="719" height="719">
<path d="M0 0 C237.27 0 474.54 0 719 0 C719 237.27 719 474.54 719 719 C481.73 719 244.46 719 0 719 C0 481.73 0 244.46 0 0 Z " fill="#FDFDFE" transform="translate(0,0)"/>
<path d="M0 0 C11.23299709 10.49791343 17.28141138 26.75730676 17.96875 41.90625 C18.55480233 62.44028055 13.95262928 81.69922675 -0.34375 97.0625 C-10.81110841 107.07475587 -24.73780446 112.19033142 -39.21044922 111.95068359 C-48.77245449 111.30283885 -59.13532969 108.4137405 -66.25 101.8125 C-67.9 99.8325 -69.55 97.8525 -71.25 95.8125 C-71.58 119.2425 -71.91 142.6725 -72.25 166.8125 C-85.45 166.8125 -98.65 166.8125 -112.25 166.8125 C-112.25 108.7325 -112.25 50.6525 -112.25 -9.1875 C-99.38 -9.1875 -86.51 -9.1875 -73.25 -9.1875 C-71.43884044 -7.37634044 -71.86800552 -4.57471773 -71.6875 -2.125 C-71.60371094 -1.02027344 -71.51992188 0.08445312 -71.43359375 1.22265625 C-71.37300781 2.07730469 -71.31242187 2.93195313 -71.25 3.8125 C-70.70472656 3.13703125 -70.15945313 2.4615625 -69.59765625 1.765625 C-64.66588984 -4.06819099 -60.63627815 -8.02320726 -53.25 -10.1875 C-52.50363281 -10.40921875 -51.75726563 -10.6309375 -50.98828125 -10.859375 C-32.93709352 -15.27520274 -14.46849843 -11.58035287 0 0 Z " fill="#AD77FE" transform="translate(489.25,301.1875)"/>
<path d="M0 0 C11.23299709 10.49791343 17.28141138 26.75730676 17.96875 41.90625 C18.55480233 62.44028055 13.95262928 81.69922675 -0.34375 97.0625 C-10.81110841 107.07475587 -24.73780446 112.19033142 -39.21044922 111.95068359 C-48.77245449 111.30283885 -59.13532969 108.4137405 -66.25 101.8125 C-67.9 99.8325 -69.55 97.8525 -71.25 95.8125 C-71.58 119.2425 -71.91 142.6725 -72.25 166.8125 C-85.45 166.8125 -98.65 166.8125 -112.25 166.8125 C-112.25 108.7325 -112.25 50.6525 -112.25 -9.1875 C-99.38 -9.1875 -86.51 -9.1875 -73.25 -9.1875 C-71.43884044 -7.37634044 -71.86800552 -4.57471773 -71.6875 -2.125 C-71.60371094 -1.02027344 -71.51992187 0.08445312 -71.43359375 1.22265625 C-71.37300781 2.07730469 -71.31242187 2.93195313 -71.25 3.8125 C-70.70472656 3.13703125 -70.15945312 2.4615625 -69.59765625 1.765625 C-64.66588984 -4.06819099 -60.63627815 -8.02320726 -53.25 -10.1875 C-52.50363281 -10.40921875 -51.75726563 -10.6309375 -50.98828125 -10.859375 C-32.93709352 -15.27520274 -14.46849843 -11.58035287 0 0 Z " fill="#AD78FE" transform="translate(152.25,301.1875)"/>
<path d="M0 0 C8.47613656 6.90829627 13.73812465 16.27470893 17.65234375 26.33984375 C17.97332031 27.12101562 18.29429687 27.9021875 18.625 28.70703125 C22.13878324 38.9378606 20.65234375 47.99784851 20.65234375 59.33984375 C-6.40765625 59.33984375 -33.46765625 59.33984375 -61.34765625 59.33984375 C-58.86352396 71.47566347 -58.86352396 71.47566347 -51.59765625 80.71484375 C-45.48207907 84.26582405 -39.43760809 84.18521953 -32.6640625 82.78515625 C-29.58086132 81.92238937 -29.58086132 81.92238937 -25.34765625 79.33984375 C-23.69765625 76.03984375 -22.04765625 72.73984375 -20.34765625 69.33984375 C-7.47765625 69.33984375 5.39234375 69.33984375 18.65234375 69.33984375 C14.99792049 83.95753677 7.73760322 95.32336538 -5.22265625 103.33984375 C-21.75438957 112.16537847 -41.88443204 113.98420572 -60.0078125 109.4375 C-74.57612251 104.6495525 -86.90090446 96.00169627 -94.34765625 82.33984375 C-101.33254229 65.92082592 -104.1346783 44.36778163 -97.34765625 27.33984375 C-90.81846076 11.60961395 -80.24114791 -0.91708318 -64.265625 -7.59375 C-42.58094715 -15.51867243 -18.96282115 -13.4096489 0 0 Z " fill="#AD77FE" transform="translate(658.34765625,303.66015625)"/>
<path d="M0 0 C13.2 0 26.4 0 40 0 C40.04898438 4.74632812 40.09796875 9.49265625 40.1484375 14.3828125 C40.18388837 17.41798806 40.21988493 20.45313808 40.2578125 23.48828125 C40.31775438 28.28918489 40.37584623 33.09005345 40.421875 37.89111328 C40.45917752 41.76864879 40.50564825 45.64598254 40.55806351 49.52334213 C40.57637199 50.99101032 40.59156329 52.45872135 40.60334396 53.92645645 C40.44284312 71.58939066 40.44284312 71.58939066 46 88 C50.42394351 91.82114289 55.85197795 92.64529333 61.5390625 92.3828125 C66.94115894 91.54248639 70.66552307 89.47874471 74.3125 85.4375 C79.23004125 75.42028635 79.46729684 65.31134447 79.51171875 54.39453125 C79.52859933 52.81840142 79.54675401 51.24228477 79.56611633 49.66618347 C79.61325625 45.55475996 79.64329689 41.44338991 79.66955566 37.33178711 C79.7048345 32.3788307 79.76174283 27.42607952 79.81494904 22.47328949 C79.89303985 14.98222055 79.94396416 7.49141238 80 0 C92.87 0 105.74 0 119 0 C119 12.21 119 24.42 119 37 C114.545 35.02 114.545 35.02 110 33 C104.91574342 32.93220991 101.6208106 33.14716544 97.5625 36.25 C92.84834114 41.30909731 92.4807954 46.17420208 92.63671875 52.87890625 C93.78879517 62.77685314 100.53886302 69.90831221 108 76 C108.91209229 76.41080811 109.82418457 76.82161621 110.76391602 77.24487305 C114.13278011 78.87540653 116.44197531 80.24909548 119 83 C120.39819874 88.9073127 120.04075156 94.40096234 119.6875 100.4375 C119.460625 105.903125 119.23375 111.36875 119 117 C106.13 117 93.26 117 80 117 C79.505 108.09 79.505 108.09 79 99 C76.25447776 103.09227103 76.25447776 103.09227103 73.52661133 107.19628906 C68.57746386 114.45790055 62.57080475 118.15194969 54 120 C39.88254871 121.48121535 25.75418925 120.3349631 13.99609375 111.68359375 C4.99279362 104.08981223 1.39046882 95.61340407 0 84 C-0.12828543 81.16361738 -0.12694987 78.33326693 -0.11352539 75.49438477 C-0.11367142 74.67406265 -0.11381744 73.85374054 -0.1139679 73.00856018 C-0.11327584 70.31948119 -0.10551679 67.63047302 -0.09765625 64.94140625 C-0.09578956 63.06811053 -0.09436684 61.19481433 -0.09336853 59.32151794 C-0.08956315 54.40771114 -0.07974988 49.49393422 -0.06866455 44.58013916 C-0.05660221 38.67544421 -0.05203876 32.77073923 -0.04621124 26.86603546 C-0.03653698 17.91066957 -0.01736659 8.95536916 0 0 Z " fill="#AD76FE" transform="translate(171,295)"/>
<path d="M0 0 C13.2 0 26.4 0 40 0 C40.029729 5.92114746 40.029729 5.92114746 40.06005859 11.96191406 C40.12688405 24.98586449 40.20442442 38.00973247 40.28752708 51.03358841 C40.33766269 58.93204051 40.38410549 66.83048219 40.421875 74.72900391 C40.45480177 81.61283548 40.49463675 88.49658636 40.54279006 95.38032889 C40.56804829 99.02568704 40.58983153 102.6709917 40.60334396 106.31641388 C40.61855269 110.38456329 40.64918327 114.45245559 40.68115234 118.52050781 C40.68331253 119.73107346 40.68547272 120.9416391 40.68769836 122.18888855 C40.69886185 123.29664139 40.71002533 124.40439423 40.7215271 125.54571533 C40.72705786 126.50806721 40.73258862 127.47041908 40.73828697 128.46193314 C40.88627268 131.36106592 40.88627268 131.36106592 43 135 C46.3 135.66 49.6 136.32 53 137 C53 145.25 53 153.5 53 162 C46.53467787 163.07755369 40.41072463 163.29668522 33.875 163.375 C32.71484375 163.41238281 31.5546875 163.44976562 30.359375 163.48828125 C21.57141832 163.57675061 12.53511639 162.3679824 5.93310547 156.00927734 C-0.73086607 147.95027823 -0.28177214 139.06283287 -0.22705078 129.07836914 C-0.22648601 127.66848763 -0.22680451 126.25860553 -0.22793579 124.84872437 C-0.22850774 121.03722492 -0.21677903 117.22585229 -0.20278788 113.41438222 C-0.19025419 109.4252228 -0.18910794 105.43606022 -0.18673706 101.44688416 C-0.18053003 93.89994672 -0.16412976 86.35306748 -0.14403808 78.80615562 C-0.12165486 70.21124361 -0.11067956 61.61632877 -0.10064721 53.02139485 C-0.07976281 35.3475569 -0.04309631 17.6737987 0 0 Z " fill="#AD76FF" transform="translate(510,251)"/>
<path d="M0 0 C0.77085937 0.00515625 1.54171875 0.0103125 2.3359375 0.015625 C7.96997768 0.09497768 7.96997768 0.09497768 9.125 1.25 C9.2133967 3.6256852 9.24030305 5.97208674 9.22265625 8.34765625 C9.2212413 9.05651474 9.21982635 9.76537323 9.21836853 10.49571228 C9.21275443 12.76801712 9.20019963 15.04022475 9.1875 17.3125 C9.18248681 18.84960796 9.17792359 20.38671745 9.17382812 21.92382812 C9.16278042 25.69925642 9.14550641 29.47461171 9.125 33.25 C7.91239502 33.29560059 6.69979004 33.34120117 5.45043945 33.38818359 C-9.59695953 33.85221632 -9.59695953 33.85221632 -22.30859375 41.2734375 C-30.92867932 52.1506527 -31.14606068 67.64392316 -31.2890625 80.89453125 C-31.30842865 82.03033127 -31.3277948 83.16613129 -31.3477478 84.33634949 C-31.40682347 87.91166014 -31.45363712 91.48700427 -31.5 95.0625 C-31.53824624 97.50847644 -31.57730166 99.95444037 -31.6171875 102.40039062 C-31.71396499 108.35018982 -31.79410391 114.29987968 -31.875 120.25 C-44.745 120.25 -57.615 120.25 -70.875 120.25 C-71.1225 114.805 -71.37 109.36 -71.625 103.75 C-71.73424805 102.04779297 -71.84349609 100.34558594 -71.95605469 98.59179688 C-72.11833743 94.23934545 -71.95250791 90.50096784 -70.875 86.25 C-67.3425701 82.47653053 -63.43399752 80.56147208 -58.875 78.25 C-51.72933664 72.36898785 -45.70341406 65.61189824 -44.47265625 56.16015625 C-44.29930342 50.55045874 -44.48298733 45.92863816 -47.875 41.25 C-51.50134102 37.89563456 -54.10570867 36.42345993 -59.0625 35.9375 C-63.79048935 36.08666111 -63.79048935 36.08666111 -70.875 40.25 C-70.875 28.04 -70.875 15.83 -70.875 3.25 C-58.005 3.25 -45.135 3.25 -31.875 3.25 C-31.38 13.645 -31.38 13.645 -30.875 24.25 C-29.885 22.27 -28.895 20.29 -27.875 18.25 C-23.82225082 10.53937501 -19.14394928 4.16213533 -10.85058594 0.81689453 C-7.25695151 -0.21429913 -3.70976084 -0.10233823 0 0 Z " fill="#AD76FE" transform="translate(364.875,291.75)"/>
<path d="M0 0 C2.75 2.25 2.75 2.25 5 5 C5.43054688 5.48082031 5.86109375 5.96164062 6.3046875 6.45703125 C13.95329156 15.75755275 13.82445856 28.56063755 13 40 C11.80952727 48.56148305 9.079638 56.58292348 2.3828125 62.40625 C-4.38324035 67.11892363 -12.11118729 66.72389522 -20 66 C-25.66961752 64.01606144 -29.72348937 59.96157325 -33 55 C-36.12957867 47.46933957 -36.48916822 40.12744012 -36.4375 32.0625 C-36.45748047 30.95970703 -36.47746094 29.85691406 -36.49804688 28.72070312 C-36.49239104 19.13405732 -34.65048602 9.6184549 -27.83203125 2.4375 C-19.35659809 -4.21273327 -9.50768164 -4.46681647 0 0 Z " fill="#FDFDFE" transform="translate(453,319)"/>
<path d="M0 0 C2.75 2.25 2.75 2.25 5 5 C5.43054688 5.48082031 5.86109375 5.96164062 6.3046875 6.45703125 C13.65765398 15.39806445 13.91619921 27.87509887 13.21142578 38.94433594 C12.23472323 48.44068178 8.75254524 57.18104206 1.36328125 63.37109375 C-4.97342155 67.34356037 -12.82900197 66.90911013 -20 66 C-25.19639715 64.09906911 -29.12768742 60.71879924 -32 56 C-35.70712246 47.96086027 -36.62376575 40.78736822 -36.5 32 C-36.51546875 30.90171875 -36.5309375 29.8034375 -36.546875 28.671875 C-36.50161298 19.12158833 -34.62125504 9.58766986 -27.83203125 2.4375 C-19.35659809 -4.21273327 -9.50768164 -4.46681647 0 0 Z " fill="#FDFDFE" transform="translate(116,319)"/>
<path d="M0 0 C3.82521273 2.6114433 6.4313221 6.21681456 8.125 10.5 C8.62 14.46 8.62 14.46 9.125 18.5 C-3.745 18.5 -16.615 18.5 -29.875 18.5 C-26.4795273 7.18175766 -26.4795273 7.18175766 -23.5 4 C-22.65308594 3.05640625 -22.65308594 3.05640625 -21.7890625 2.09375 C-15.98632868 -2.73791408 -6.73029684 -3.33562957 0 0 Z " fill="#FDFCFE" transform="translate(627.875,320.5)"/>
</svg>
